<svg width="200" height="200" viewBox="0 0 200 200" fill="none" xmlns="http://www.w3.org/2000/svg">
<path d="M93.5922 43.0678C89.7007 43.8682 86.0061 45.4624 82.7285 47.7556C79.4509 50.0488 76.6572 52.9939 74.5137 56.4159C71.6339 60.9881 69.9061 66.5929 69.5461 82.3746C68.8261 109.071 68.4662 122.419 74.8737 129.793C77.7177 132.708 81.1009 135.012 84.8251 136.571C88.5494 138.129 92.5398 138.911 96.5627 138.869C100.586 138.828 104.56 137.965 108.253 136.331C111.946 134.696 115.284 132.323 118.07 129.351C124.19 121.976 124.118 112.168 123.974 93.2153C123.83 74.2625 123.974 58.702 113.535 48.9675C110.794 46.6178 107.604 44.8795 104.171 43.8637C100.737 42.8478 97.134 42.5768 93.5922 43.0678Z" stroke="white" stroke-width="21" stroke-miterlimit="10"/>
<path d="M93.0164 131.932L115.911 171.165C119.206 171.233 122.453 170.338 125.27 168.584C127.405 167.231 129.205 165.388 130.525 163.201L127.07 156.49C125.702 153.909 113.247 129.941 111.951 127.36L93.0164 131.932Z" fill="white"/>
<path d="M120.302 173.378C120.302 173.378 133.765 171.976 134.701 164.749C134.714 162.798 134.253 160.873 133.361 159.149C132.469 157.424 131.173 155.953 129.59 154.867C129.59 154.867 133.837 160.03 132.829 164.749C131.39 171.386 120.23 173.156 120.302 173.378Z" fill="white"/>
<path d="M126.35 41.814C131.644 47.4258 135.502 54.2912 137.581 61.7993C141.325 73.3774 141.109 84.4394 140.749 106.047C140.876 108.504 140.876 110.965 140.749 113.422C139.439 124.23 134.592 134.265 126.998 141.888C130.982 136.658 133.962 130.702 135.781 124.336C138.025 116.485 139.069 108.326 138.877 100.147C139.277 93.1474 139.277 86.1296 138.877 79.1297C137.21 65.9507 132.948 53.2557 126.35 41.814Z" fill="white" stroke="white" stroke-width="0.07" stroke-miterlimit="10"/>
<path d="M91.7206 124.484C89.8034 124.265 88.0086 123.41 86.609 122.05C85.0495 120.196 83.9832 117.96 83.5133 115.56C81.8436 104.833 81.4327 93.9395 82.2894 83.1121C82.2894 79.2773 82.2894 78.3923 82.2894 77.9498C82.2854 73.7341 82.9666 69.547 84.3052 65.5605C85.2715 62.7985 87.1581 60.4743 89.6328 58.997C88.3933 60.6125 87.2627 62.3126 86.249 64.0855C85.0875 65.8855 84.3257 67.9246 84.0172 70.059C83.4836 75.6954 83.3393 81.3634 83.5852 87.0206C83.5852 95.2802 83.5852 99.41 83.5852 101.77C83.786 106.729 84.3881 111.662 85.3851 116.519C85.6704 118.167 86.3098 119.728 87.257 121.091C88.5307 122.491 90.0434 123.641 91.7206 124.484Z" fill="white" stroke="white" stroke-width="0.07" stroke-miterlimit="10"/>
<path d="M114.015 185.487L114.504 185.796C117.175 187.335 120.153 188.227 123.209 188.403C126.265 188.579 129.317 188.035 132.13 186.813C134.944 185.59 137.444 183.721 139.439 181.35C141.434 178.979 142.87 176.169 143.637 173.136L144.054 171.462C144.95 167.995 146.877 164.903 149.568 162.615C152.259 160.327 155.581 158.957 159.073 158.693C164.564 158.273 169.661 155.639 173.247 151.367C176.833 147.096 178.616 141.536 178.204 135.906L177.632 127.722C177.213 121.992 178.78 116.3 182.057 111.651L185.031 107.331C188.441 102.422 189.856 96.3416 188.977 90.3701C188.098 84.3986 184.994 79.0013 180.318 75.3142C178.206 73.6492 176.461 71.5451 175.198 69.1408C173.935 66.7366 173.183 64.0868 172.992 61.3666L172.296 51.4099C171.873 45.6107 169.228 40.2108 164.94 36.3891C160.652 32.5674 155.069 30.6343 149.409 31.012C146.022 31.2397 142.639 30.4548 139.672 28.7524C136.705 27.05 134.281 24.5035 132.693 21.4217L132.066 20.0949C130.735 17.4019 128.842 15.0406 126.522 13.1792C124.202 11.3178 121.511 10.0022 118.643 9.32595C115.774 8.64971 112.797 8.62949 109.924 9.26675C107.051 9.904 104.353 11.1831 102.021 13.0128C99.5677 14.8819 96.6405 15.9888 93.5863 16.2024C90.5322 16.416 87.4794 15.7272 84.7899 14.2177C82.1677 12.8139 79.2768 12.0215 76.3246 11.8973C73.3725 11.7732 70.4324 12.3204 67.7154 13.4997C64.9985 14.6789 62.5721 16.461 60.6106 18.7179C58.649 20.9749 57.2009 23.6506 56.3703 26.5531C55.5043 29.747 53.7166 32.5952 51.2412 34.7247C48.7658 36.8543 45.718 38.166 42.4969 38.4881L41.1663 38.5811C35.5156 39.0122 30.266 41.7085 26.5551 46.0857C22.8442 50.4629 20.9709 56.1683 21.3412 61.9656L22.0279 71.786C22.2186 74.5397 21.8111 77.3003 20.8347 79.869C19.8582 82.4377 18.3372 84.7505 16.3813 86.6407C14.2373 88.7537 12.5289 91.2862 11.3565 94.0893C10.1841 96.8923 9.57142 99.9093 9.55445 102.963C9.53749 106.016 10.1166 109.044 11.2577 111.869C12.3989 114.694 14.079 117.258 16.1992 119.411L19.7974 123.066C23.7853 127.19 26.2057 132.637 26.6205 138.419L27.1546 146.057C27.5383 151.798 30.1267 157.157 34.3526 160.959C38.5784 164.762 44.0971 166.697 49.6991 166.342L50.0982 166.314C53.6031 166.091 57.0913 167.004 60.0691 168.924C63.0468 170.843 65.3633 173.672 66.6906 177.009L67.4134 178.74C68.5252 181.567 70.2649 184.091 72.4939 186.111C74.7229 188.131 77.3795 189.591 80.2522 190.375C83.1249 191.159 86.1343 191.246 89.0407 190.627C91.947 190.009 94.67 188.704 96.9928 186.815C99.3766 184.889 102.267 183.735 105.298 183.499C108.329 183.262 111.363 183.955 114.015 185.487Z" stroke="white" stroke-width="12"/>
</svg>
