<svg width="201" height="200" viewBox="0 0 201 200" fill="none" xmlns="http://www.w3.org/2000/svg">
<path d="M94.0922 43.0678C90.2007 43.8682 86.5061 45.4625 83.2285 47.7556C79.9509 50.0488 77.1572 52.9939 75.0137 56.4159C72.1339 60.9881 70.4061 66.5929 70.0461 82.3746C69.3261 109.071 68.9662 122.419 75.3737 129.793C78.2177 132.708 81.6009 135.012 85.3251 136.571C89.0494 138.129 93.0398 138.911 97.0627 138.869C101.086 138.828 105.06 137.965 108.753 136.331C112.446 134.696 115.784 132.323 118.57 129.351C124.69 121.976 124.618 112.168 124.474 93.2153C124.33 74.2625 124.474 58.702 114.035 48.9675C111.294 46.6178 108.104 44.8795 104.671 43.8637C101.237 42.8478 97.634 42.5768 94.0922 43.0678Z" stroke="black" stroke-width="21" stroke-miterlimit="10"/>
<path d="M93.5164 131.932L116.411 171.165C119.706 171.233 122.953 170.338 125.77 168.584C127.905 167.231 129.705 165.388 131.025 163.201L127.57 156.49C126.202 153.909 113.747 129.941 112.451 127.36L93.5164 131.932Z" fill="black"/>
<path d="M120.802 173.378C120.802 173.378 134.265 171.976 135.201 164.749C135.214 162.798 134.753 160.873 133.861 159.149C132.969 157.424 131.673 155.953 130.09 154.867C130.09 154.867 134.337 160.03 133.329 164.749C131.89 171.386 120.73 173.156 120.802 173.378Z" fill="black"/>
<path d="M126.85 41.814C132.144 47.4258 136.002 54.2912 138.081 61.7993C141.825 73.3774 141.609 84.4394 141.249 106.047C141.376 108.504 141.376 110.965 141.249 113.422C139.939 124.23 135.092 134.265 127.498 141.888C131.482 136.658 134.462 130.702 136.281 124.336C138.525 116.485 139.569 108.326 139.377 100.147C139.777 93.1474 139.777 86.1296 139.377 79.1297C137.71 65.9507 133.448 53.2557 126.85 41.814Z" fill="black" stroke="black" stroke-width="0.07" stroke-miterlimit="10"/>
<path d="M92.2206 124.484C90.3034 124.265 88.5086 123.41 87.109 122.05C85.5495 120.196 84.4832 117.96 84.0133 115.56C82.3436 104.833 81.9327 93.9395 82.7894 83.1121C82.7894 79.2773 82.7894 78.3923 82.7894 77.9498C82.7854 73.7341 83.4666 69.547 84.8052 65.5605C85.7715 62.7985 87.6581 60.4743 90.1328 58.997C88.8933 60.6125 87.7627 62.3126 86.749 64.0855C85.5875 65.8855 84.8257 67.9246 84.5172 70.059C83.9836 75.6954 83.8393 81.3634 84.0852 87.0206C84.0852 95.2802 84.0852 99.41 84.0852 101.77C84.286 106.729 84.8881 111.662 85.8851 116.519C86.1704 118.167 86.8098 119.728 87.757 121.091C89.0307 122.491 90.5434 123.641 92.2206 124.484Z" fill="black" stroke="black" stroke-width="0.07" stroke-miterlimit="10"/>
<path d="M114.515 185.487L115.004 185.796C117.675 187.335 120.653 188.227 123.709 188.403C126.765 188.579 129.817 188.035 132.63 186.813C135.444 185.59 137.944 183.721 139.939 181.35C141.934 178.979 143.37 176.169 144.137 173.136L144.554 171.462C145.45 167.995 147.377 164.903 150.068 162.615C152.759 160.327 156.081 158.957 159.573 158.693C165.064 158.273 170.161 155.639 173.747 151.367C177.333 147.096 179.116 141.536 178.704 135.906L178.132 127.722C177.713 121.992 179.28 116.3 182.557 111.651L185.531 107.331C188.941 102.422 190.356 96.3416 189.477 90.3701C188.598 84.3986 185.494 79.0013 180.818 75.3142C178.706 73.6492 176.961 71.5451 175.698 69.1408C174.435 66.7366 173.683 64.0868 173.492 61.3666L172.796 51.4099C172.373 45.6107 169.728 40.2108 165.44 36.3891C161.152 32.5674 155.569 30.6343 149.909 31.012C146.522 31.2397 143.139 30.4548 140.172 28.7524C137.205 27.05 134.781 24.5035 133.193 21.4217L132.566 20.0949C131.235 17.4019 129.342 15.0406 127.022 13.1792C124.702 11.3178 122.011 10.0022 119.143 9.32595C116.274 8.64971 113.297 8.62949 110.424 9.26675C107.551 9.904 104.853 11.1831 102.521 13.0128C100.068 14.8819 97.1405 15.9888 94.0863 16.2024C91.0322 16.416 87.9794 15.7272 85.2899 14.2177C82.6677 12.8139 79.7768 12.0215 76.8246 11.8973C73.8725 11.7732 70.9324 12.3204 68.2154 13.4997C65.4985 14.6789 63.0721 16.461 61.1106 18.7179C59.149 20.9749 57.7009 23.6506 56.8703 26.5531C56.0043 29.747 54.2166 32.5952 51.7412 34.7247C49.2658 36.8543 46.218 38.166 42.9969 38.4881L41.6663 38.5811C36.0156 39.0122 30.766 41.7085 27.0551 46.0857C23.3442 50.4629 21.4709 56.1683 21.8412 61.9656L22.5279 71.786C22.7186 74.5397 22.3111 77.3003 21.3347 79.869C20.3582 82.4377 18.8372 84.7505 16.8813 86.6407C14.7373 88.7537 13.0289 91.2862 11.8565 94.0893C10.6841 96.8923 10.0714 99.9093 10.0545 102.963C10.0375 106.016 10.6166 109.044 11.7577 111.869C12.8989 114.694 14.579 117.258 16.6992 119.411L20.2974 123.066C24.2853 127.19 26.7057 132.637 27.1205 138.419L27.6546 146.057C28.0383 151.798 30.6267 157.157 34.8526 160.959C39.0784 164.762 44.5971 166.697 50.1991 166.342L50.5982 166.314C54.1031 166.091 57.5913 167.004 60.5691 168.924C63.5468 170.843 65.8633 173.672 67.1906 177.009L67.9134 178.74C69.0252 181.567 70.7649 184.091 72.9939 186.111C75.2229 188.131 77.8795 189.591 80.7522 190.375C83.6249 191.159 86.6343 191.246 89.5407 190.627C92.447 190.009 95.17 188.704 97.4928 186.815C99.8766 184.889 102.767 183.735 105.798 183.499C108.829 183.262 111.863 183.955 114.515 185.487Z" stroke="black" stroke-width="12"/>
</svg>
