<svg width="200" height="200" viewBox="0 0 200 200" fill="none" xmlns="http://www.w3.org/2000/svg">
<g clip-path="url(#clip0_600_106)">
<path d="M93.5922 43.0678C89.7007 43.8682 86.0061 45.4624 82.7285 47.7556C79.4509 50.0488 76.6572 52.9939 74.5137 56.4159C71.6339 60.9881 69.9061 66.5928 69.5461 82.3746C68.8261 109.071 68.4662 122.419 74.8737 129.793C77.7177 132.708 81.1009 135.012 84.8251 136.571C88.5494 138.129 92.5398 138.911 96.5627 138.869C100.586 138.828 104.56 137.965 108.253 136.331C111.946 134.696 115.284 132.323 118.07 129.351C124.19 121.976 124.118 112.168 123.974 93.2153C123.83 74.2625 123.974 58.702 113.535 48.9675C110.794 46.6178 107.604 44.8795 104.171 43.8637C100.737 42.8478 97.134 42.5768 93.5922 43.0678Z" stroke="white" stroke-width="21" stroke-miterlimit="10"/>
<path d="M93.0164 131.932L115.911 171.165C119.206 171.233 122.453 170.338 125.27 168.584C127.405 167.231 129.205 165.388 130.525 163.201L127.07 156.49C125.702 153.909 113.247 129.941 111.951 127.36L93.0164 131.932Z" fill="white"/>
<path d="M120.302 173.378C120.302 173.378 133.765 171.976 134.701 164.749C134.714 162.798 134.253 160.873 133.361 159.149C132.469 157.424 131.173 155.953 129.59 154.867C129.59 154.867 133.837 160.029 132.829 164.749C131.39 171.386 120.23 173.156 120.302 173.378Z" fill="white"/>
<path d="M126.35 41.814C131.644 47.4258 135.502 54.2912 137.581 61.7993C141.325 73.3774 141.109 84.4394 140.749 106.047C140.876 108.504 140.876 110.965 140.749 113.422C139.439 124.23 134.592 134.265 126.998 141.888C130.982 136.658 133.962 130.702 135.781 124.336C138.025 116.485 139.069 108.326 138.877 100.147C139.277 93.1474 139.277 86.1296 138.877 79.1297C137.21 65.9507 132.948 53.2557 126.35 41.814Z" fill="white" stroke="white" stroke-width="0.07" stroke-miterlimit="10"/>
<path d="M91.7206 124.484C89.8034 124.265 88.0086 123.41 86.609 122.05C85.0495 120.196 83.9832 117.96 83.5133 115.56C81.8436 104.833 81.4327 93.9395 82.2894 83.1121C82.2894 79.2773 82.2894 78.3923 82.2894 77.9498C82.2854 73.7341 82.9666 69.547 84.3052 65.5605C85.2715 62.7985 87.1581 60.4743 89.6328 58.997C88.3933 60.6125 87.2627 62.3126 86.249 64.0855C85.0875 65.8855 84.3257 67.9246 84.0172 70.059C83.4836 75.6954 83.3393 81.3634 83.5852 87.0206C83.5852 95.2802 83.5852 99.41 83.5852 101.77C83.786 106.729 84.3881 111.662 85.3851 116.519C85.6704 118.167 86.3098 119.728 87.257 121.091C88.5307 122.491 90.0434 123.641 91.7206 124.484Z" fill="white" stroke="white" stroke-width="0.07" stroke-miterlimit="10"/>
<path d="M109.143 193.068L109.647 193.437C112.408 195.294 115.547 196.478 118.825 196.898C122.102 197.317 125.43 196.961 128.552 195.857C131.674 194.753 134.507 192.931 136.834 190.529C139.16 188.128 140.918 185.212 141.973 182.006L142.548 180.236C143.774 176.572 146.082 173.39 149.152 171.131C152.222 168.871 155.903 167.646 159.683 167.625C165.628 167.586 171.315 165.135 175.499 160.808C179.682 156.481 182.021 150.632 182.001 144.543V135.693C181.982 129.495 184.098 123.489 187.977 118.732L191.505 114.307C195.547 109.281 197.528 102.844 197.031 96.3519C196.534 89.8598 193.598 83.8182 188.841 79.4985C186.691 77.5479 184.97 75.1523 183.791 72.47C182.612 69.7877 182.002 66.8797 182.001 63.9381V53.1711C181.982 46.8987 179.541 40.8888 175.212 36.4535C170.882 32.0183 165.015 29.518 158.891 29.4985C155.226 29.4886 151.643 28.3894 148.576 26.3342C145.509 24.279 143.09 21.3562 141.613 17.9204L141.037 16.4454C139.806 13.4472 137.946 10.7638 135.587 8.58615C133.229 6.40853 130.431 4.7903 127.392 3.84671C124.354 2.90311 121.15 2.65734 118.008 3.12692C114.866 3.59649 111.864 4.76984 109.215 6.56343C106.433 8.39016 103.197 9.36109 99.8919 9.36109C96.5869 9.36109 93.3512 8.39016 90.5686 6.56343C87.8506 4.85546 84.797 3.78518 81.6273 3.42943C78.4575 3.07368 75.2501 3.44129 72.2355 4.50587C69.2209 5.57045 66.4738 7.30558 64.1915 9.58668C61.9092 11.8678 60.1482 14.6382 59.0352 17.6991C57.8622 21.071 55.7225 24.0014 52.8964 26.1068C50.0703 28.2121 46.6894 29.3943 43.1964 29.4985H41.7566C35.639 29.5372 29.7828 32.0437 25.4569 36.4748C21.1311 40.9059 18.6842 46.9047 18.6464 53.1711V63.7906C18.6444 66.7682 17.9977 69.7083 16.7527 72.399C15.5078 75.0898 13.6957 77.4641 11.447 79.351C8.97914 81.4635 6.94868 84.0602 5.47506 86.9884C4.00145 89.9166 3.11445 93.1171 2.86624 96.4016C2.61804 99.6862 3.01365 102.988 4.0298 106.114C5.04595 109.24 6.66211 112.125 8.7832 114.602L12.3829 118.805C16.3668 123.544 18.5631 129.587 18.5744 135.841V144.1C18.5552 150.307 20.9391 156.269 25.2035 160.679C29.468 165.088 35.2652 167.586 41.3246 167.625H41.7566C45.5477 167.65 49.2353 168.895 52.2974 171.184C55.3596 173.474 57.6411 176.692 58.8192 180.383L59.4671 182.301C60.4516 185.426 62.135 188.273 64.3833 190.615C66.6315 192.956 69.3824 194.727 72.4169 195.787C75.4515 196.847 78.6857 197.167 81.862 196.72C85.0384 196.274 88.0691 195.073 90.7126 193.215C93.4247 191.323 96.6245 190.298 99.906 190.272C103.187 190.246 106.403 191.219 109.143 193.068Z" stroke="white" stroke-width="6"/>
</g>
<defs>
<clipPath id="clip0_600_106">
<rect width="200" height="200" fill="white"/>
</clipPath>
</defs>
</svg>
