<svg width="201" height="201" viewBox="0 0 201 201" fill="none" xmlns="http://www.w3.org/2000/svg">
<g clip-path="url(#clip0_599_42)">
<path d="M94.0922 43.3543C90.2007 44.1548 86.5061 45.749 83.2285 48.0422C79.9509 50.3353 77.1572 53.2805 75.0137 56.7024C72.1339 61.2747 70.4061 66.8794 70.0461 82.6611C69.3261 109.357 68.9662 122.705 75.3737 130.08C78.2177 132.995 81.6009 135.299 85.3251 136.857C89.0494 138.416 93.0398 139.197 97.0627 139.156C101.086 139.115 105.06 138.252 108.753 136.617C112.446 134.983 115.784 132.61 118.57 129.638C124.69 122.263 124.618 112.455 124.474 93.5018C124.33 74.549 124.474 58.9886 114.035 49.254C111.294 46.9044 108.104 45.1661 104.671 44.1502C101.237 43.1344 97.634 42.8633 94.0922 43.3543Z" stroke="#4D4D4D" stroke-width="21" stroke-miterlimit="10"/>
<path d="M93.5164 132.219L116.411 171.452C119.706 171.52 122.953 170.624 125.77 168.871C127.905 167.518 129.705 165.675 131.025 163.487L127.57 156.776C126.202 154.195 113.747 130.228 112.451 127.647L93.5164 132.219Z" fill="#4D4D4D"/>
<path d="M120.802 173.664C120.802 173.664 134.265 172.263 135.201 165.036C135.214 163.084 134.753 161.16 133.861 159.435C132.969 157.71 131.673 156.239 130.09 155.154C130.09 155.154 134.337 160.316 133.329 165.036C131.89 171.673 120.73 173.443 120.802 173.664Z" fill="#4D4D4D"/>
<path d="M126.85 42.1006C132.144 47.7124 136.002 54.5777 138.081 62.0858C141.825 73.664 141.609 84.726 141.249 106.334C141.376 108.79 141.376 111.252 141.249 113.708C139.939 124.517 135.092 134.551 127.498 142.174C131.482 136.945 134.462 130.989 136.281 124.623C138.525 116.772 139.569 108.612 139.377 100.434C139.777 93.434 139.777 86.4161 139.377 79.4162C137.71 66.2373 133.448 53.5423 126.85 42.1006Z" fill="#4D4D4D" stroke="#4D4D4D" stroke-width="0.07" stroke-miterlimit="10"/>
<path d="M92.2206 124.77C90.3034 124.551 88.5086 123.697 87.109 122.337C85.5495 120.482 84.4832 118.247 84.0133 115.847C82.3436 105.12 81.9327 94.2261 82.7894 83.3986C82.7894 79.5638 82.7894 78.6789 82.7894 78.2364C82.7854 74.0206 83.4666 69.8336 84.8052 65.847C85.7715 63.0851 87.6581 60.7609 90.1328 59.2836C88.8933 60.899 87.7627 62.5991 86.749 64.3721C85.5875 66.1721 84.8257 68.2111 84.5172 70.3455C83.9836 75.982 83.8393 81.6499 84.0852 87.3072C84.0852 95.5668 84.0852 99.6966 84.0852 102.056C84.286 107.015 84.8881 111.949 85.8851 116.806C86.1704 118.453 86.8098 120.015 87.757 121.378C89.0307 122.778 90.5434 123.927 92.2206 124.77Z" fill="#4D4D4D" stroke="#4D4D4D" stroke-width="0.07" stroke-miterlimit="10"/>
<path d="M109.643 193.354L110.147 193.723C112.908 195.58 116.047 196.764 119.325 197.184C122.602 197.604 125.93 197.248 129.052 196.144C132.174 195.04 135.007 193.217 137.334 190.816C139.66 188.415 141.418 185.499 142.473 182.292L143.048 180.523C144.274 176.859 146.582 173.677 149.652 171.417C152.722 169.158 156.403 167.932 160.183 167.912C166.128 167.873 171.815 165.421 175.999 161.095C180.182 156.768 182.521 150.919 182.501 144.829V135.98C182.482 129.782 184.598 123.775 188.477 119.018L192.005 114.593C196.047 109.567 198.028 103.131 197.531 96.6385C197.034 90.1463 194.098 84.1047 189.341 79.7851C187.191 77.8344 185.47 75.4389 184.291 72.7566C183.112 70.0743 182.502 67.1663 182.501 64.2246V53.4577C182.482 47.1853 180.041 41.1754 175.712 36.7401C171.382 32.3049 165.515 29.8046 159.391 29.7851C155.726 29.7752 152.143 28.676 149.076 26.6208C146.009 24.5656 143.59 21.6427 142.113 18.2069L141.537 16.732C140.306 13.7338 138.446 11.0503 136.087 8.87272C133.729 6.6951 130.931 5.07688 127.892 4.13328C124.854 3.18968 121.65 2.94392 118.508 3.41349C115.366 3.88306 112.364 5.05642 109.715 6.85001C106.933 8.67673 103.697 9.64767 100.392 9.64767C97.0869 9.64767 93.8512 8.67673 91.0686 6.85001C88.3506 5.14204 85.297 4.07175 82.1273 3.716C78.9575 3.36025 75.7501 3.72787 72.7355 4.79245C69.7209 5.85703 66.9738 7.59216 64.6915 9.87325C62.4092 12.1544 60.6482 14.9248 59.5352 17.9857C58.3622 21.3575 56.2225 24.288 53.3964 26.3933C50.5703 28.4987 47.1894 29.6809 43.6964 29.7851H42.2566C36.139 29.8238 30.2828 32.3303 25.9569 36.7614C21.6311 41.1925 19.1842 47.1913 19.1464 53.4577V64.0771C19.1444 67.0548 18.4977 69.9949 17.2527 72.6856C16.0078 75.3763 14.1957 77.7507 11.947 79.6376C9.47914 81.7501 7.44868 84.3468 5.97506 87.275C4.50145 90.2032 3.61445 93.4037 3.36624 96.6882C3.11804 99.9728 3.51365 103.275 4.5298 106.401C5.54595 109.526 7.16211 112.412 9.2832 114.888L12.8829 119.092C16.8668 123.831 19.0631 129.874 19.0744 136.127V144.387C19.0552 150.594 21.4391 156.555 25.7035 160.965C29.968 165.375 35.7652 167.873 41.8246 167.912H42.2566C46.0477 167.936 49.7353 169.181 52.7974 171.471C55.8596 173.761 58.1411 176.979 59.3192 180.67L59.9671 182.587C60.9516 185.713 62.635 188.56 64.8833 190.901C67.1315 193.242 69.8824 195.014 72.9169 196.074C75.9515 197.134 79.1857 197.453 82.362 197.007C85.5384 196.56 88.5691 195.36 91.2126 193.502C93.9247 191.609 97.1245 190.585 100.406 190.559C103.687 190.532 106.903 191.506 109.643 193.354Z" stroke="#4D4D4D" stroke-width="6"/>
</g>
<defs>
<clipPath id="clip0_599_42">
<rect width="200" height="200" fill="white" transform="translate(0.5 0.28656)"/>
</clipPath>
</defs>
</svg>
