<svg width="28" height="28" viewBox="0 0 28 28" fill="none" xmlns="http://www.w3.org/2000/svg">
<path d="M13 5.83999C12.4595 5.94853 11.9463 6.16471 11.4911 6.47566C11.0358 6.78661 10.6478 7.18598 10.35 7.64999C9.95002 8.26999 9.71001 9.02999 9.66001 11.17C9.56001 14.79 9.51001 16.6 10.4 17.6C10.795 17.9952 11.265 18.3077 11.7823 18.519C12.2996 18.7303 12.8538 18.8363 13.4126 18.8307C13.9714 18.8251 14.5234 18.7081 15.0364 18.4864C15.5494 18.2648 16.013 17.943 16.4 17.54C17.25 16.54 17.24 15.21 17.22 12.64C17.2 10.07 17.22 7.95999 15.77 6.63999C15.3893 6.32137 14.9463 6.08566 14.4694 5.94792C13.9924 5.81017 13.492 5.77341 13 5.83999Z" stroke="#D32027" stroke-width="3" stroke-miterlimit="10"/>
<path d="M12.92 17.89L16.1 23.21C16.5578 23.2192 17.0087 23.0978 17.4 22.86C17.6966 22.6766 17.9465 22.4266 18.13 22.13L17.65 21.22C17.46 20.87 15.73 17.62 15.55 17.27L12.92 17.89Z" fill="#D12127"/>
<path d="M16.71 23.51C16.71 23.51 18.58 23.32 18.71 22.34C18.7117 22.0753 18.6478 21.8144 18.5238 21.5805C18.3999 21.3467 18.2199 21.1472 18 21C18 21 18.59 21.7 18.45 22.34C18.25 23.24 16.7 23.48 16.71 23.51Z" fill="#D12127"/>
<path d="M17.55 5.66998C18.2854 6.43094 18.8213 7.36188 19.11 8.37998C19.63 9.94998 19.6 11.45 19.55 14.38C19.5676 14.7131 19.5676 15.0469 19.55 15.38C19.3681 16.8456 18.6948 18.2063 17.64 19.24C18.1933 18.5308 18.6073 17.7233 18.86 16.86C19.1717 15.7954 19.3167 14.689 19.29 13.58C19.3455 12.6308 19.3455 11.6792 19.29 10.73C19.0585 8.94292 18.4665 7.22147 17.55 5.66998Z" fill="#D12127" stroke="#D32027" stroke-width="0.07" stroke-miterlimit="10"/>
<path d="M12.74 16.88C12.4737 16.8503 12.2244 16.7344 12.03 16.55C11.8134 16.2985 11.6653 15.9954 11.6 15.67C11.3681 14.2154 11.311 12.7382 11.43 11.27C11.43 10.75 11.43 10.63 11.43 10.57C11.4294 9.99834 11.5241 9.43058 11.71 8.89C11.8442 8.51548 12.1063 8.20032 12.45 8C12.2778 8.21905 12.1208 8.44959 11.98 8.69C11.8187 8.93407 11.7128 9.21058 11.67 9.5C11.5959 10.2643 11.5758 11.0329 11.61 11.8C11.61 12.92 11.61 13.48 11.61 13.8C11.6379 14.4724 11.7215 15.1414 11.86 15.8C11.8996 16.0234 11.9884 16.2352 12.12 16.42C12.2969 16.6098 12.507 16.7657 12.74 16.88Z" fill="#D12127" stroke="#D32027" stroke-width="0.07" stroke-miterlimit="10"/>
<path d="M15.16 26.18L15.23 26.23C15.6134 26.4818 16.0495 26.6424 16.5048 26.6993C16.96 26.7562 17.4222 26.708 17.8558 26.5583C18.2895 26.4086 18.683 26.1614 19.0062 25.8358C19.3294 25.5102 19.5736 25.1148 19.72 24.68L19.8 24.44C19.9702 23.9432 20.2907 23.5117 20.7172 23.2053C21.1436 22.8989 21.6549 22.7328 22.18 22.73C23.0057 22.7247 23.7957 22.3923 24.3768 21.8056C24.9578 21.2189 25.2826 20.4258 25.28 19.6V18.4C25.2773 17.5595 25.5712 16.7451 26.11 16.1L26.6 15.5C27.1614 14.8184 27.4366 13.9457 27.3676 13.0653C27.2986 12.185 26.8908 11.3657 26.23 10.78C25.9314 10.5155 25.6923 10.1907 25.5286 9.82693C25.3648 9.46321 25.2801 9.06889 25.28 8.67V7.21C25.2773 6.35947 24.9383 5.54452 24.3369 4.9431C23.7355 4.34168 22.9205 4.00264 22.07 4C21.5609 3.99866 21.0632 3.8496 20.6371 3.57092C20.2111 3.29223 19.8752 2.8959 19.67 2.43L19.59 2.23C19.4191 1.82344 19.1606 1.45957 18.8331 1.16428C18.5055 0.868997 18.1168 0.649566 17.6948 0.521614C17.2727 0.393663 16.8277 0.360337 16.3913 0.424011C15.9549 0.487685 15.5379 0.646792 15.17 0.890003C14.7835 1.13771 14.334 1.26937 13.875 1.26937C13.4159 1.26937 12.9665 1.13771 12.58 0.890003C12.2024 0.658402 11.7783 0.513271 11.338 0.465031C10.8977 0.416792 10.4522 0.46664 10.0335 0.610997C9.61478 0.755354 9.2332 0.990638 8.91619 1.29995C8.59917 1.60927 8.35458 1.98495 8.19998 2.4C8.03705 2.85722 7.73985 3.25459 7.34731 3.54008C6.95476 3.82557 6.48516 3.98587 5.99998 4H5.79998C4.95025 4.00525 4.13682 4.34513 3.53596 4.94599C2.9351 5.54684 2.59522 6.36028 2.58998 7.21V8.65C2.5897 9.05377 2.49987 9.45245 2.32695 9.81731C2.15403 10.1822 1.90232 10.5041 1.58998 10.76C1.2472 11.0465 0.965164 11.3986 0.760479 11.7956C0.555794 12.1927 0.432589 12.6267 0.398114 13.0721C0.363639 13.5174 0.418589 13.9652 0.559732 14.3891C0.700875 14.8129 0.92536 15.2042 1.21998 15.54L1.71998 16.11C2.27334 16.7526 2.57841 17.572 2.57998 18.42V19.54C2.57732 20.3817 2.90843 21.1901 3.50077 21.788C4.0931 22.386 4.89833 22.7247 5.73998 22.73H5.79998C6.32656 22.7333 6.83877 22.9021 7.2641 23.2126C7.68944 23.5231 8.00635 23.9595 8.16998 24.46L8.25998 24.72C8.39672 25.1438 8.63055 25.5298 8.94283 25.8473C9.25511 26.1648 9.63721 26.405 10.0587 26.5487C10.4802 26.6925 10.9294 26.7358 11.3706 26.6752C11.8118 26.6147 12.2328 26.452 12.6 26.2C12.9767 25.9434 13.4211 25.8045 13.8769 25.8009C14.3327 25.7973 14.7793 25.9293 15.16 26.18Z" stroke="#FF8900" stroke-width="0.8"/>
</svg>
