<svg width="79" height="89" viewBox="0 0 79 89" fill="none" xmlns="http://www.w3.org/2000/svg">
<rect width="78.8922" height="88.7768" transform="translate(0.053894 0.167358)" fill="white"/>
<path d="M31.0757 79.3775C31.0757 81.3637 35.061 81.7014 36.4242 81.7014C38.4284 81.7014 40.4325 81.7014 42.4367 81.7014C46.0392 81.7014 49.6418 81.7014 53.2443 81.7014C55.2239 81.7014 57.2034 81.7014 59.183 81.7014C60.3141 81.7014 61.4453 81.7014 62.5765 81.7014C63.602 81.7014 64.8919 81.9045 65.8409 81.4616C67.0651 80.8903 68.7834 81.558 70.0828 80.9083C70.5413 80.6791 70.967 80.4171 71.4107 80.1706C71.7145 80.0018 71.5767 79.2598 71.5767 78.9626C71.5767 78.2768 71.4844 78.4384 71.088 77.9759C70.9021 77.759 70.066 77.8453 69.8799 78.0128C69.5636 78.2975 69.4151 78.7356 69.0869 79.0456C68.7885 79.3274 68.2269 79.2116 67.842 79.2116C66.8737 79.2116 65.9055 79.2116 64.9372 79.2116C63.5954 79.2116 62.4624 79.7095 61.1195 79.7095C58.3002 79.7095 55.3828 79.8755 52.525 79.8755C46.5372 79.8755 40.5493 79.8755 34.5615 79.8755C33.7215 79.8755 32.8411 79.4431 32.1454 79.0456C31.8457 78.8743 31.3632 78.8483 31.251 78.4554C31.1031 77.9381 31.2532 77.7177 31.7397 77.7177C32.9178 77.7177 33.8624 77.7224 34.9765 77.3119C36.0612 76.9123 37.3148 77.0537 38.4622 77.0537C43.8845 77.0537 49.3067 77.0537 54.729 77.0537C57.2249 77.0537 59.7209 77.0537 62.2169 77.0537C63.5395 77.0537 64.909 77.1514 66.2282 77.0537C66.5305 77.0313 66.5943 76.7217 66.9383 76.7217C67.2918 76.7217 67.6453 76.7217 67.9988 76.7217C68.4168 76.7217 68.8348 76.7217 69.2529 76.7217" stroke="#FFD6B3" stroke-width="3" stroke-linecap="round"/>
<path d="M34.1132 61.1469C34.8821 61.6076 35.5573 62.1851 36.4405 62.3428C37.1861 62.4759 37.9327 62.442 38.6884 62.442C39.4036 62.442 40.114 62.4867 40.8272 62.4867C41.8273 62.4867 42.8034 62.6207 43.8045 62.6207C47.3311 62.6207 50.8576 62.6207 54.3841 62.6207C56.7445 62.6207 59.1049 62.6207 61.4653 62.6207C62.6562 62.6207 63.8471 62.6207 65.0381 62.6207C65.4273 62.6207 65.807 62.5585 66.1943 62.5313C66.3853 62.5179 66.6228 62.4957 66.8022 62.4172C67.1529 62.2638 67.5639 61.9892 67.5639 61.5687C67.5639 61.231 67.1906 61.239 66.9386 61.1915C66.6817 61.1432 66.4171 61.0511 66.1596 61.0228C65.8613 60.99 65.5514 61.0129 65.2515 61.0129C63.8232 61.0129 62.3949 61.0129 60.9665 61.0129C59.7963 61.0129 58.626 61.0129 57.4557 61.0129C56.6441 61.0129 55.8082 61.067 54.9994 60.993C51.5663 60.6792 48.1023 60.7896 44.6531 60.7896C43.8451 60.7896 43.037 60.7896 42.229 60.7896C41.1021 60.7896 39.9976 60.9236 38.872 60.9236C37.5984 60.9236 36.3247 60.9236 35.0511 60.9236" stroke="#C0E8C0" stroke-width="3" stroke-linecap="round"/>
<path d="M31.926 67.1314C32.0328 67.1411 32.1321 67.1769 32.233 67.2122C32.7154 67.3812 33.1949 67.5446 33.6915 67.6687C34.3903 67.8434 35.1052 67.9771 35.8125 68.1131C36.3997 68.2261 36.993 68.1638 37.586 68.1899C38.5417 68.2319 39.4752 68.4845 40.4323 68.509C42.5633 68.5637 44.7019 68.5131 46.8337 68.5131C49.1722 68.5131 51.5107 68.5131 53.8492 68.5131C57.3431 68.5131 60.8371 68.5131 64.3311 68.5131C64.7603 68.5131 65.1735 68.4939 65.5875 68.3697C65.8972 68.2768 66.2605 68.2222 66.5834 68.2222C67.0401 68.2222 67.5958 68.2437 68.0115 68.0242C68.1768 67.937 68.2925 67.8459 68.4761 67.8C68.7199 67.7391 68.9775 67.6849 69.2155 67.6041C69.4895 67.511 69.7421 67.3487 70.0295 67.2768C70.1935 67.2358 70.1218 66.627 70.0679 66.5133C69.9481 66.2604 69.5672 66.077 69.2983 66.077C68.4485 66.077 67.6214 66.0528 66.7834 66.2224C65.5225 66.4776 64.2317 66.473 62.9797 66.786C62.3215 66.9505 61.6864 66.9273 61.0142 66.9658C60.0695 67.0198 59.1415 67.0528 58.1943 67.0587C57.4134 67.0635 56.6367 67.1314 55.8551 67.1314C54.9555 67.1314 54.0559 67.1314 53.1563 67.1314C50.9511 67.1314 48.746 67.1314 46.5408 67.1314C45.7297 67.1314 44.9606 67.1736 44.1592 67.3051C43.2955 67.4468 42.3979 67.4223 41.5251 67.4223C40.1266 67.4223 38.728 67.4223 37.3295 67.4223C36.4728 67.4223 35.5866 67.4925 34.7338 67.4142C33.9428 67.3416 33.2384 66.997 32.4936 66.7678C32.0265 66.6241 32.1384 65.9165 32.5623 65.7861C32.7945 65.7146 33.06 65.7497 33.2996 65.7497C33.7726 65.7497 34.2438 65.7379 34.7116 65.8204C35.8032 66.013 36.8972 66.3123 38.0103 66.3315C38.7745 66.3447 39.5188 66.5133 40.2888 66.5133C41.4591 66.5133 42.6294 66.5133 43.7996 66.5133C46.038 66.5133 48.2755 66.5496 50.5142 66.5496C54.8006 66.5496 59.0871 66.5496 63.3736 66.5496C64.1713 66.5496 64.9397 66.5903 65.7309 66.691C66.3719 66.7726 67.0208 66.6796 67.66 66.7718C68.3581 66.8726 69.0379 66.8769 69.7407 66.8769" stroke="#D9A799" stroke-width="3" stroke-linecap="round"/>
<path d="M34.783 73.1044C35.3203 73.559 36.1561 73.8293 36.8328 73.9725C37.757 74.168 38.7668 74.0621 39.7031 74.0621C41.1733 74.0621 42.6435 74.0621 44.1136 74.0621C44.9481 74.0621 45.7826 74.0621 46.6171 74.0621C47.0148 74.0621 47.3608 74.1086 47.7484 74.1517C48.2727 74.2099 48.8231 74.1629 49.3502 74.1629C50.8287 74.1629 52.3073 74.1629 53.7859 74.1629C54.7562 74.1629 55.7279 74.148 56.6982 74.1629C56.9929 74.1674 57.2698 74.2637 57.5663 74.2637C57.686 74.2637 57.8357 74.2383 57.9471 74.2889C58.2723 74.4367 58.9118 74.3141 59.2688 74.3141C60.4244 74.3141 61.58 74.3141 62.7356 74.3141C63.6504 74.3141 64.5652 74.3141 65.4799 74.3141C66.0549 74.3141 66.6299 74.3141 67.2049 74.3141C67.3218 74.3141 67.4943 74.3451 67.6081 74.3029C67.7415 74.2535 68.0163 73.9771 68.0478 73.8352C68.0854 73.6661 68.1321 73.5887 68.0198 73.4264C67.7137 72.9843 67.4419 72.9759 66.9025 72.8803C66.6495 72.8355 66.4206 72.7515 66.1632 72.7515C65.8126 72.7515 65.4603 72.7752 65.1159 72.7011C64.1982 72.5037 63.2117 72.6003 62.2764 72.6003C53.3721 72.6003 44.4181 72.6507 35.5391 72.6507" stroke="#FFEFB5" stroke-width="3" stroke-linecap="round"/>
<path d="M12.6683 52.2808C13.2552 52.2808 13.8459 51.7431 14.3747 51.5215C14.8442 51.3248 15.3109 51.3115 15.774 51.1716C16.8222 50.8552 17.9573 50.6077 19.0419 50.4549C19.9589 50.3258 20.9355 50.077 21.7723 49.6699C22.6283 49.2535 23.6109 49.0201 24.4173 48.5181C24.8766 48.2321 25.4175 48.0983 25.8763 47.8099C26.3929 47.4852 26.9257 47.1797 27.4121 46.8116C28.1416 46.2596 29.0038 45.8513 29.6561 45.199C30.0569 44.7982 30.5346 44.5194 30.9445 44.141C31.2535 43.8558 31.5714 43.5697 31.9428 43.3731C32.1478 43.2646 32.4587 42.8895 32.5998 42.6991C32.759 42.4841 33.0993 42.2722 33.3207 42.1061C33.5269 41.9514 33.6814 41.7205 33.9009 41.5685C34.1555 41.3923 34.5171 41.3213 34.7414 41.1419C35.21 40.767 35.8784 40.3915 36.4265 40.1479C36.8174 39.9742 37.3503 39.6513 37.7063 39.3843C37.9674 39.1885 38.2607 39.1161 38.5425 38.9576C38.8182 38.8026 39.0914 38.5756 39.3915 38.4756C39.9896 38.2762 40.5085 37.8153 41.1321 37.6735C41.7801 37.5262 42.3249 36.9883 42.958 36.7691C43.3169 36.6448 43.66 36.4952 44.016 36.3681C44.4397 36.2167 44.8914 36.1909 45.3044 36.0012C45.6011 35.8648 45.96 35.8557 46.2429 35.694C46.4344 35.5846 46.7718 35.594 46.9127 35.4295C47.155 35.1468 47.5812 35.0276 47.8001 34.6872C48.0277 34.3331 48.1456 34.0014 48.1456 33.5865C48.1456 33.2097 48.2561 32.8329 48.2181 32.4347C48.1969 32.2121 47.9858 32.0849 47.783 32.0849C46.8467 32.0849 45.8518 32.1197 44.9247 32.0038C42.8407 31.7433 40.6705 31.7777 38.5553 31.7777C37.5026 31.7777 36.3901 31.4169 35.3557 31.1975C34.3583 30.9859 33.4361 30.7794 32.4206 30.7794C31.0952 30.7794 29.7699 30.7794 28.4445 30.7794C27.6046 30.7794 26.7919 31.0866 25.936 31.0866C25.4299 31.0866 24.997 31.082 24.5111 31.2231C23.9599 31.3831 23.1902 31.2402 22.6127 31.2402C21.5201 31.2402 20.3349 31.1119 19.2638 31.3553C18.6888 31.486 18.0913 31.4705 17.5061 31.4705C16.6891 31.4705 15.8756 31.5473 15.0573 31.5473C13.9061 31.5473 12.7319 31.6166 11.5975 31.4748C11.268 31.4336 10.4546 31.4834 10.2707 31.7777C10.01 32.1948 10.2032 32.6362 10.3816 33.1002C10.6221 33.7253 10.9818 34.3177 11.1154 34.9858C11.2181 35.4993 11.2928 36.0111 11.4055 36.5217C11.499 36.9449 11.4999 37.4888 11.7127 37.8612C11.8206 38.0501 11.8153 38.444 11.8833 38.6633C11.9329 38.8229 11.8839 39.0027 11.9174 39.1667C11.9542 39.3463 12.0488 39.5007 12.054 39.6871C12.076 40.4821 12.2075 41.2442 12.2075 42.0506C12.2075 42.6748 12.3611 43.2601 12.3611 43.8936C12.3611 44.2682 12.5147 44.5806 12.5147 44.9686C12.5147 45.3351 12.5165 45.6822 12.455 46.0437C12.3358 46.7437 12.4379 47.5428 12.4379 48.2536C12.4379 48.8478 12.3658 50.4858 13.1674 50.664C13.7185 50.7864 14.1023 49.8555 14.2041 49.4737C14.3121 49.0689 14.3577 48.6669 14.3577 48.2493C14.3577 47.6672 14.6337 47.1357 14.6648 46.5642C14.7619 44.7847 14.7416 42.9939 14.7416 41.2059C14.7416 39.2062 14.2768 37.4453 13.4789 35.6215C13.2071 35.0004 13.0522 34.1475 13.0522 33.4671C13.0522 32.8697 13.24 32.6992 13.8201 32.6992C14.5185 32.6992 14.9968 33.1579 15.2365 33.7743C15.5854 34.6715 15.911 35.5848 16.2391 36.4961C16.42 36.9987 16.3542 37.5459 16.3542 38.0745C16.3542 38.6721 16.4322 39.3272 16.3116 39.9133C16.2103 40.4052 16.2265 40.8535 16.1964 41.3509C16.1656 41.8588 16.0471 42.3207 16.0471 42.8356C16.0471 43.7204 15.8935 44.592 15.8935 45.4849C15.8935 46.2452 15.8167 46.9877 15.8167 47.7502C15.8167 48.1078 15.9885 48.9455 16.2775 49.1495C16.4847 49.2958 16.5559 49.5247 16.8576 49.5164C17.2075 49.5066 17.4685 49.1071 17.6426 48.8594C18.142 48.1487 18.4881 47.2791 18.5044 46.4021C18.524 45.3419 18.7913 44.2174 19.0419 43.1897C19.3211 42.0449 19.4259 40.719 19.4259 39.5378C19.4259 38.5845 19.3691 37.7002 19.1528 36.7734C18.9458 35.8861 18.5046 35.0999 18.2356 34.2393C18.0277 33.5739 17.6937 32.8543 17.3696 32.2384C17.2308 31.9747 17.0196 32.7085 17.0027 32.776C16.8893 33.2296 16.883 33.6939 16.8918 34.1582C16.9033 34.7674 17.1633 35.3606 17.3867 35.9159C17.6153 36.4842 17.6379 37.0363 17.8133 37.6138C17.9922 38.2034 17.8901 38.9129 17.8901 39.525C17.8901 40.1246 17.8825 40.6595 17.7535 41.24C17.5811 42.0161 17.6309 42.8607 17.7194 43.6461C17.7952 44.3187 17.8871 44.949 18.0607 45.6086C18.154 45.963 18.1928 46.3251 18.4105 46.6154C18.7114 47.0165 18.89 47.6578 19.1016 48.1341C19.2161 48.3918 19.1705 48.5159 19.5624 48.3645C19.9674 48.208 20.1295 47.8927 20.2706 47.5027C20.4058 47.1288 20.3847 46.6974 20.4412 46.3082C20.5176 45.7823 20.6545 45.2487 20.6545 44.7127C20.6545 43.0429 21.3456 41.4819 21.3456 39.8109C21.3456 38.1798 21.2664 36.5818 20.518 35.1138C20.3077 34.7014 20.0851 34.3089 19.9805 33.851C19.8437 33.2526 19.946 32.8528 20.5948 32.8528C22.3487 32.8528 21.8832 36.3447 21.8832 37.3365C21.8832 38.5424 21.8832 39.7483 21.8832 40.9542C21.8832 41.9124 21.9217 42.9546 21.6144 43.8765C21.5222 44.1531 21.5292 44.5833 21.5035 44.8791C21.4711 45.2516 21.4992 45.6399 21.4992 46.0139C21.4992 46.4803 21.4992 46.9467 21.4992 47.4132C21.4992 48.1156 21.892 48.1341 22.5359 48.1341C22.7324 48.1341 23.043 48.1859 23.2185 48.0915C23.4201 47.9829 23.3422 47.5953 23.3422 47.4046C23.3422 46.6737 23.3422 45.9428 23.3422 45.2118C23.3422 43.9796 23.7262 42.8237 23.7262 41.5899C23.7262 39.7564 23.6494 37.9208 23.6494 36.095C23.6494 35.6182 23.6925 35.1184 23.6323 34.6446C23.5694 34.1492 23.419 33.6585 23.419 33.1599C23.419 32.744 23.3861 32.6992 23.8371 32.6992C24.1996 32.6992 24.5764 32.776 24.9164 32.776C25.3595 32.776 25.4758 34.2205 25.535 34.5166C25.7758 35.7206 25.7995 36.8345 25.7995 38.066C25.7995 38.5654 25.8274 39.0736 25.7952 39.572C25.7637 40.0605 25.5462 40.515 25.4582 40.9926C25.2766 41.9784 25.0105 42.9408 24.8183 43.9192C24.7116 44.4623 24.7244 44.9888 24.7244 45.5403C24.7244 46.1298 25.4266 45.9072 25.8763 45.9072C26.3531 45.9072 26.8368 45.4018 26.8746 44.8919C26.8971 44.5879 26.8746 44.2755 26.8746 43.9704C26.8746 43.5321 27.0099 43.1506 27.0282 42.7247C27.0804 41.5063 27.7021 40.3336 27.7193 39.1155C27.7349 38.0067 27.7193 36.8968 27.7193 35.7879C27.7193 34.9592 27.7735 34.0685 27.6254 33.2538C27.589 33.0535 27.529 32.8302 27.5657 32.6224C27.5992 32.4325 28.323 32.392 28.4872 32.392C29.1374 32.392 29.6352 33.2322 29.7158 33.8169C29.812 34.5139 30.023 35.1814 30.023 35.8903C30.023 36.5686 30.023 37.2469 30.023 37.9252C30.023 39.7215 29.5523 41.4235 29.1954 43.1683C29.1138 43.5671 29.0247 43.9627 29.0247 44.3714C29.0247 44.8998 29.7529 44.6685 30.0998 44.5079C30.775 44.1953 30.8457 43.3427 30.9616 42.6479C31.0474 42.133 31.3104 41.6686 31.3882 41.1632C31.4358 40.8533 31.3834 40.5359 31.4223 40.2247C31.4558 39.9567 31.5546 39.7126 31.5588 39.4397C31.5761 38.3311 31.5588 37.2209 31.5588 36.1121C31.5588 35.2063 31.5588 34.3004 31.5588 33.3946C31.5588 32.7444 31.8502 32.392 32.4888 32.392C33.1881 32.392 33.8338 32.6064 34.511 32.7418C35.0968 32.859 35.7484 33.0035 36.3113 33.1983C37.7959 33.7122 39.4 33.9164 40.9401 34.2051C42.6908 34.5334 44.4452 34.619 46.2259 34.619C46.6786 34.619 45.3297 35.2669 45.1934 35.3058C44.212 35.5862 43.2174 35.792 42.237 36.078C41.5206 36.2869 40.7817 36.3844 40.1125 36.735C39.3878 37.1145 38.6091 37.0849 37.8727 37.4005C36.5017 37.9881 35.3437 38.9368 34.0161 39.5933C33.4575 39.8695 32.9568 40.1914 32.4462 40.5318C32.2818 40.6414 32.4224 39.1303 32.4632 38.9534C32.6326 38.2193 32.504 37.4113 32.7107 36.7008C32.8416 36.2508 32.8407 34.3932 33.598 34.6659C33.992 34.8077 34.3972 35.0783 34.7755 35.2674C35.266 35.5127 35.8541 35.602 36.3753 35.7666C36.8954 35.9308 37.4921 35.9244 38.0348 35.9244C38.1499 35.9244 38.2511 35.8561 38.3505 35.8561C38.4049 35.8561 37.8811 36.0968 37.8045 36.1164C37.0659 36.3046 36.3365 36.4967 35.6031 36.6923C35.2738 36.7801 35.0051 37.1305 34.6774 37.264C34.3074 37.4147 33.6829 38.1527 33.5554 38.5353" stroke="#F297A2" stroke-width="3" stroke-linecap="round"/>
<path d="M15.356 77.7754C15.356 78.5158 15.3928 79.1945 15.9362 79.7378C16.5014 80.3031 17.3605 80.2496 18.0436 80.5228C18.4261 80.6758 19.0172 80.774 19.4259 80.83C20.1807 80.9334 20.8858 81.0006 21.6485 81.0006C22.7506 81.0006 23.8527 81.0006 24.9548 81.0006C25.7611 81.0006 26.5674 81.0006 27.3737 81.0006C28.0438 81.0006 28.6408 81.0444 28.6408 80.2498C28.6408 79.2198 28.4416 77.935 28.7943 76.9648C28.9747 76.4689 28.9616 75.9733 29.1954 75.5058C29.4271 75.0424 30.0116 74.7919 30.3643 74.4393C30.5394 74.2642 30.815 74.16 31.0213 74.0127C31.2949 73.8172 31.2516 73.6459 31.2516 73.3215C31.2516 72.853 31.2872 72.3924 31.1578 71.9393C31.0092 71.4191 30.3871 71.504 29.9419 71.5596C29.5959 71.6029 29.2944 71.8956 28.9394 71.935C28.3735 71.9979 27.8245 72.2063 27.2585 72.3062C26.7632 72.3936 26.1762 72.4631 25.7056 72.6304C25.2214 72.8026 24.5891 72.8195 24.1485 73.0528C23.924 73.1716 23.275 73.2841 23.1289 73.4751C22.927 73.7392 22.3362 73.8722 22.0325 73.9785C21.2118 74.2658 20.0851 74.7248 19.4259 75.3181C19.171 75.5475 18.814 75.7343 18.5214 75.9154C18.3445 76.0249 18.2024 76.1902 18.0394 76.3207C17.8043 76.5087 17.5031 76.582 17.28 76.7771C17.0317 76.9944 16.4645 77.5965 16.7979 77.8693C16.9745 78.0137 17.3971 77.929 17.617 77.929C18.1272 77.929 18.5886 77.9972 18.9609 77.5877C19.5955 76.8896 20.5426 76.2017 21.3883 75.7789C21.802 75.572 22.2732 75.4914 22.6681 75.2413C23.0118 75.0237 23.3517 74.8316 23.7219 74.6697C24.5711 74.2981 25.415 73.9369 26.2944 73.6714C26.816 73.5139 28.2998 72.9739 28.3336 73.9529C28.3471 74.3441 28.3931 74.7398 28.0776 75.028C27.6625 75.4073 27.0505 75.6365 26.529 75.8215C25.6476 76.1343 24.7839 76.5599 23.9224 76.9264C23.3109 77.1866 22.5857 77.2735 22.0197 77.6218C21.1511 78.1563 20.1398 78.4135 19.2808 78.9657C19.0694 79.1016 19.1891 79.4584 19.4259 79.4648C20.2498 79.4871 21.0565 79.3984 21.8533 79.1918C23.0317 78.8863 24.0539 78.1753 25.2022 77.7925C25.7607 77.6063 26.509 77.7713 26.8319 78.2788C27.2456 78.9289 26.3397 79.2941 25.8592 79.3112C25.2803 79.3319 24.7244 79.5523 24.7244 80.1559" stroke="#F297A2" stroke-width="3" stroke-linecap="round"/>
<path d="M31.5019 56.3855C31.5019 55.8604 31.3216 55.3748 31.3216 54.8529C31.3216 54.0759 31.1757 53.1296 31.3716 52.3737C31.8072 50.6939 32.259 49.0732 32.9042 47.4505C33.1908 46.7297 33.4063 45.9246 33.8458 45.2769C34.3114 44.5907 34.8916 44.0641 35.5587 43.579C36.3484 43.0046 37.271 42.9684 38.153 42.6424C38.9852 42.3349 39.9889 42.0107 40.7473 41.5556C41.8428 40.8983 42.9821 40.0817 44.2432 39.8177C44.8944 39.6814 45.5437 39.4983 46.1965 39.3469C47.1935 39.1157 48.3313 39.2568 49.3467 39.2568C50.073 39.2568 50.7992 39.2568 51.5254 39.2568C52.3377 39.2568 53.0045 39.574 53.7892 39.7276C55.636 40.0889 57.4904 40.4024 59.3184 40.8595C59.6794 40.9497 60.0409 41.0328 60.4003 41.1299C60.5026 41.1576 60.8257 41.3166 60.8009 41.2902C60.5446 41.0168 60.3982 40.7907 60.0597 40.589C59.5244 40.2701 58.9213 40.1625 58.3719 39.8878C57.7617 39.5828 57.1048 39.4371 56.4286 39.4371C56.3284 39.4371 55.9817 39.3799 55.8977 39.4471C55.7346 39.5776 57.159 39.9433 57.2149 39.9579C58.0124 40.1674 58.8368 40.284 59.639 40.4788C60.1794 40.6101 60.658 40.8193 61.2116 40.8995C61.9125 41.0011 62.3896 41.4898 63.0096 41.776C63.5404 42.021 64.0381 42.3509 64.5172 42.6825C65.0446 43.0477 65.2841 43.5597 65.7142 43.9897C65.9214 44.1969 66.0581 44.4774 66.245 44.7059C66.339 44.8207 66.3453 44.9901 66.4304 45.1166C66.5718 45.3267 66.8017 45.4736 66.9212 45.6976C67.2239 46.2651 67.5719 46.7988 67.9028 47.3503C68.1431 47.7508 68.6973 48.1877 68.8244 48.6325C68.9091 48.9291 69.1014 49.2194 69.2351 49.4989C69.4911 50.0344 69.7651 50.7026 70.1366 51.1567C70.4168 51.4992 70.4053 52.1142 70.6274 52.4889C70.7538 52.7022 70.6607 52.898 70.7376 53.12C70.8386 53.4119 70.8978 53.5715 70.8978 53.9063C70.8978 54.2036 70.8928 55.0269 71.0581 55.2335C71.2457 55.4681 70.9386 56.0936 70.8928 56.3454C70.822 56.7351 70.1565 56.7256 69.8661 56.8312C69.5195 56.9573 69.0915 57.0709 68.7242 57.1117C67.6585 57.2301 66.6111 57.5659 65.5489 57.7177C63.9972 57.9394 62.2733 57.7377 60.7058 57.7377C59.1304 57.7377 57.2772 58.001 55.7525 57.5574C54.8184 57.2857 53.6282 57.4673 52.6523 57.4673C51.8549 57.4673 51.0023 57.5686 50.2132 57.4472C48.4012 57.1685 46.3359 57.3771 44.5136 57.3771C42.0362 57.3771 39.5587 57.3771 37.0812 57.3771C36.183 57.3771 35.2849 57.3771 34.3867 57.3771C34.1202 57.3771 33.1908 57.4739 33.0294 57.2319C32.6735 56.6979 32.6738 55.8029 32.6738 55.1734C32.6738 54.3285 32.6086 53.4472 32.7189 52.6091C32.9529 50.8305 33.799 49.4878 34.567 47.9113C35.1581 46.6978 35.635 45.6713 36.5954 44.7109C36.972 44.3343 39.1647 43.1487 39.1647 44.2151C39.1647 44.7786 38.8096 45.1912 38.4034 45.5974C37.8362 46.1646 37.2059 46.71 36.8007 47.4505C36.0638 48.7973 35.1079 50.2075 35.1079 51.8228C35.1079 52.6976 35.1079 53.5724 35.1079 54.4472C35.1079 54.5947 35.0591 54.8459 35.1179 54.9781C35.2178 55.2028 36.1382 54.8808 36.3099 54.8579C37.1928 54.7402 37.9886 54.5824 38.8942 54.5824C39.9598 54.5824 41.0245 54.6726 42.0846 54.6726C42.8571 54.6726 43.7142 54.5684 44.4736 54.6926C45.416 54.8468 46.2291 55.1233 47.1881 55.1233C48.5053 55.1233 49.8225 55.1233 51.1397 55.1233C53.3578 55.1233 55.5893 55.0518 57.8059 55.1233C58.3083 55.1395 58.7807 55.3036 59.2984 55.3036C60.0163 55.3036 60.7341 55.3036 61.452 55.3036C62.7293 55.3036 63.9826 55.2135 65.2584 55.2135C66.5649 55.2135 68.0436 55.4148 69.2701 54.943C69.9243 54.6914 69.7367 54.4465 69.4103 53.8662C69.359 53.775 69.2482 53.5281 69.1249 53.5056C68.3982 53.3735 67.602 53.1558 66.8611 53.14C64.4095 53.0879 61.951 53.14 59.4987 53.14C53.72 53.14 47.9519 53.2302 42.1697 53.2302C40.8442 53.2302 39.5186 53.2302 38.1931 53.2302C37.7891 53.2302 37.385 53.2302 36.981 53.2302C36.6205 53.2302 35.9346 53.3689 35.6037 53.1851C35.3187 53.0267 35.0848 52.0374 35.4835 51.8779C35.8657 51.7251 36.2012 51.5173 36.6154 51.5173C37.9927 51.5173 39.37 51.5173 40.7473 51.5173C48.4335 51.5173 56.1198 51.5173 63.806 51.5173C64.9662 51.5173 66.1265 51.5173 67.2868 51.5173C67.6394 51.5173 68.5866 51.5833 68.8043 51.2469C68.9791 50.9768 68.6239 50.1213 68.3135 50.0799C66.8566 49.8856 65.245 50.0749 63.7759 50.0749C54.6573 50.0749 45.5387 50.0749 36.4201 50.0749C35.8396 50.0749 35.7786 50.0374 35.9243 49.4789C36.1204 48.7269 37.3799 48.6944 38.0328 48.5423C39.2411 48.2609 40.6472 48.4522 41.8792 48.4522C44.0328 48.4522 46.1865 48.4522 48.3401 48.4522C52.7992 48.4522 57.2583 48.4522 61.7175 48.4522C62.9495 48.4522 64.1816 48.4522 65.4137 48.4522C65.6515 48.4522 66.841 48.6191 66.841 48.3119C66.841 47.9377 66.8189 47.7372 66.5706 47.4305C65.9227 46.6301 64.1204 46.9196 63.22 46.9196C60.397 46.9196 57.5737 46.9072 54.7508 46.9196C53.365 46.9257 51.9917 46.9988 50.6189 47.2001C49.5747 47.3531 48.5681 47.6255 47.5087 47.6408C46.168 47.6602 44.8327 47.7171 43.4919 47.731C42.5223 47.741 41.6087 48.0739 40.6572 48.0916C40.1767 48.1005 39.6953 48.0916 39.2148 48.0916C38.7311 48.0916 38.4031 47.9741 38.0829 47.6859C37.3959 47.0676 39.2803 46.4825 39.6555 46.4688C42.3397 46.3712 45.0432 46.4688 47.729 46.4688C49.5599 46.4688 51.414 46.5545 53.2383 46.3787C53.8694 46.3179 54.4877 46.2979 55.1214 46.2835C55.9599 46.2645 56.715 46.0232 57.5355 45.8979C59.143 45.6523 60.7458 45.9162 62.3535 45.5874C63.0046 45.4542 63.6439 45.3981 64.3068 45.387C64.6288 45.3817 64.6628 45.112 64.447 44.8962C63.7988 44.248 62.682 44.3052 61.8727 44.3052C58.4871 44.3052 55.1014 44.3052 51.7157 44.3052C47.8776 44.3052 44.0395 44.3052 40.2014 44.3052C40.0487 44.3052 39.6959 44.3757 39.5754 44.2551C39.3071 43.9868 39.806 43.6767 39.9811 43.584C40.7465 43.1788 41.7007 43.0375 42.5504 42.9079C43.623 42.7443 44.5961 42.6186 45.6856 42.5924C46.0033 42.5847 46.2402 42.4402 46.542 42.377C47.1276 42.2544 47.7563 42.2655 48.3501 42.1717C49.5887 41.9758 50.7334 41.8711 51.9761 41.8711C52.6957 41.8711 53.4152 41.8711 54.1348 41.8711C54.9284 41.8711 55.7004 42.0515 56.5037 42.0515C57.5388 42.0515 58.5739 42.0515 59.6089 42.0515C59.9557 42.0515 60.3695 41.9912 60.7108 42.0715C61.0136 42.1427 61.9629 42.4353 61.9629 42.8127C61.9629 42.8745 59.7478 43.3322 59.5889 43.3586C57.8895 43.6419 55.9866 44.0436 54.27 43.6541C52.3573 43.2202 50.4386 42.826 48.5204 42.4121C47.2328 42.1342 45.9348 41.8834 44.6689 41.5156C44.0277 41.3292 43.4351 41.0598 42.7607 41.0598C41.6827 41.0598 40.6419 41.645 40.0211 42.5523C39.7434 42.9582 39.5829 43.7302 39.5253 44.2201C39.4695 44.6947 39.345 45.1066 39.345 45.5874C39.345 49.0788 44.4192 49.4464 46.9077 49.6141C49.6378 49.7982 52.2346 50.1821 54.9061 50.7861C55.707 50.9672 56.374 51.1874 56.8343 51.8779" stroke="#FFD6B3" stroke-width="3" stroke-linecap="round"/>
<path d="M12.9278 56.0297C14.1025 55.9563 15.2135 55.3187 16.2665 54.8507C17.1742 54.4473 18.1356 54.1643 19.0314 53.7343C19.6342 53.445 20.272 53.2368 20.8677 52.9309C21.3194 52.6989 21.6982 52.4009 22.1823 52.2266C23.8594 51.6229 25.6202 51.3033 27.2896 50.719C27.6946 50.5772 28.1344 50.398 28.5155 50.2286C28.9025 50.0566 28.7972 50.6541 28.7972 50.8703C28.7972 51.3005 28.601 51.7833 28.4425 52.1797C28.2804 52.5848 28.2397 53.1157 28.1451 53.5413C28.0423 54.0038 28.1273 54.6249 28.1399 55.0907C28.1479 55.3855 28.3199 55.6375 28.3277 55.9358C28.3357 56.2404 28.2447 56.6511 28.4216 56.9165C28.6585 57.2719 28.7237 57.719 28.912 58.0955C29.0274 58.3263 29.2765 58.5023 29.4337 58.7007C29.7216 59.064 29.8625 59.4425 30.2005 59.7805C30.6941 60.2741 30.5813 61.2466 30.5813 61.9038C30.5813 62.9766 29.8659 63.5747 29.4128 64.4808C29.1393 65.0278 28.8314 65.514 28.3747 65.9311C27.9578 66.3117 27.4079 66.5155 26.9505 66.8388C26.1881 67.3777 25.5211 67.9882 24.6186 68.2891C23.5466 68.6464 22.5376 69.0467 21.4103 69.2698C20.2316 69.5031 19.1091 69.9183 17.9359 70.1671C17.443 70.2717 16.95 70.3752 16.4595 70.4906C16.1771 70.557 15.9366 70.7637 15.6509 70.8453C15.3055 70.944 14.5358 71.1479 15.4005 71.1479C16.1344 71.1479 16.8682 71.1479 17.602 71.1479C18.275 71.1479 16.484 71.1479 16.4022 71.1479C15.8545 71.1479 14.5847 71.4052 14.2424 70.814C14.0182 70.4267 13.9607 70.0823 13.9607 69.6454C13.9607 68.7561 13.8549 67.9392 13.7729 67.0579C13.691 66.1771 13.277 65.3425 13.2147 64.4391C13.128 63.1815 13.2095 61.8919 13.2095 60.6309C13.2095 59.1339 12.876 57.3523 14.6076 56.7809C15.2912 56.5553 16.0193 56.5138 16.7047 56.2905C17.7622 55.9459 18.7851 55.4621 19.7983 55.0072C20.8225 54.5473 21.9261 54.1929 22.8814 53.6091C23.631 53.151 24.4165 52.6657 25.3228 52.6492C25.8683 52.6393 26.426 52.521 26.7679 53.0248C27.3893 53.9406 26.3734 55.1936 25.6358 55.6749C24.1549 56.6415 22.4324 56.7606 20.7216 56.927C19.1226 57.0824 17.5102 57.7348 16.037 58.3563C15.3659 58.6395 14.7257 59.1612 14.1433 59.5979C14.0884 59.6391 13.3983 60.2153 13.8042 60.0414C14.1754 59.8823 14.495 59.614 14.8371 59.4049C15.4942 59.0034 16.2086 58.6793 16.8925 58.325C19.2404 57.1089 21.8672 56.2504 24.3734 55.4245C24.9672 55.2288 25.4968 55.0074 26.0219 54.6733C26.2382 54.5356 26.3507 54.6525 26.3558 54.882C26.3738 55.6934 26.168 56.4471 26.168 57.2452C26.168 57.86 25.721 58.1273 25.2081 58.3042C24.2655 58.6292 23.2147 58.7741 22.2293 58.9876C19.4566 59.5883 16.7142 60.2778 14.2476 61.7577C13.9445 61.9395 13.7288 62.2201 13.4443 62.4098C12.5887 62.9802 15.4121 61.8073 16.4126 61.5699C18.3887 61.101 20.3745 60.6064 22.3649 60.2083C23.3748 60.0063 24.4028 59.8896 25.422 59.744C25.8702 59.68 26.3222 59.6436 26.7366 59.4571C27.1876 59.2541 27.5491 59.0084 28.046 59.0345C28.535 59.0603 28.4696 60.2238 28.4112 60.5891C28.224 61.7588 26.4983 61.5199 25.7402 61.549C23.8273 61.6226 21.9836 61.5009 20.1009 61.862C19.3761 62.001 18.6825 62.2703 17.962 62.4098C17.4726 62.5045 16.9229 62.6207 16.4961 62.8845C15.8542 63.2813 14.5271 63.7868 14.3415 64.6217C14.2932 64.839 18.4956 64.7342 18.6871 64.7208C20.2442 64.612 21.7998 64.217 23.33 63.9174C24.4611 63.696 25.7211 63.5217 26.8044 63.1245C26.9738 63.0624 27.4559 62.769 27.6234 62.8063C28.293 62.955 26.2213 64.9533 26.1784 64.9921C24.9922 66.0647 23.2152 66.6002 21.6868 66.8753C20.5887 67.073 19.5338 67.5855 18.4471 67.7465C17.7796 67.8454 16.9808 67.8637 16.35 68.0439C15.9555 68.1566 15.8388 66.3482 15.8388 66.1189C15.8388 64.8167 18.1055 65.6317 18.7497 65.8894" stroke="#DBDBDB" stroke-width="3" stroke-linecap="round"/>
<path d="M7.1059 27.1079C7.13492 27.3691 7.92989 27.5356 8.18055 27.6192C8.87399 27.8503 9.7347 27.953 10.4655 27.953C12.0305 27.953 13.5956 27.953 15.1606 27.953C18.2211 27.953 21.2816 27.953 24.3421 27.953C25.7954 27.953 27.2502 27.9326 28.7033 27.953C29.0873 27.9585 29.4565 28.0433 29.8301 28.12C30.0824 28.1717 30.3561 28.0888 30.6022 28.1617C31.2017 28.3393 31.906 28.2348 32.5324 28.2348C34.713 28.2348 36.8937 28.2348 39.0743 28.2348C39.7653 28.2348 40.4597 28.2539 41.1505 28.2348C41.4138 28.2274 41.4235 27.757 41.5679 27.5566C41.774 27.2702 42.2289 27.1728 42.5486 27.0662C43.0982 26.883 43.6049 26.611 44.1345 26.3776C44.4593 26.2345 44.8238 26.0399 45.1361 25.8663C45.7138 25.5454 44.4333 25.5116 44.3223 25.5116C42.3726 25.5116 40.477 25.5436 38.5526 25.8455C37.5951 25.9957 36.6848 25.9139 35.7251 26.1272C34.5471 26.389 33.1728 26.3567 31.969 26.3567C29.1833 26.3567 26.3975 26.3567 23.6118 26.3567C18.4854 26.3567 13.3591 26.3567 8.23272 26.3567" stroke="#DBDBDB" stroke-width="3" stroke-linecap="round"/>
<path d="M9.4534 31.7091C9.32054 31.6925 9.34134 31.4857 9.36472 31.3805C9.40963 31.1784 9.75629 31.1168 9.92291 31.0727C10.3991 30.9466 10.9258 30.8671 11.3888 30.7127C12.064 30.4877 12.5769 30.4884 13.2982 30.4884C13.6303 30.4884 13.9624 30.4884 14.2946 30.4884C14.7484 30.4884 15.1629 30.668 15.5988 30.6762C19.8383 30.7562 24.0875 30.6762 28.3277 30.6762C30.79 30.6762 33.2523 30.6762 35.7146 30.6762C36.5841 30.6762 37.4535 30.6762 38.323 30.6762C39.2332 30.6762 40.0713 31.0518 40.9523 31.0518C41.3953 31.0518 41.8345 31.2396 42.2982 31.2396C42.5729 31.2396 42.8477 31.2396 43.1224 31.2396C43.505 31.2396 43.8876 31.2396 44.2701 31.2396C44.666 31.2396 44.9677 31.4107 45.3448 31.4274C46.3256 31.471 47.4069 32.078 47.8801 32.9299C48.1388 33.3954 48.4916 34.3083 48.1879 34.8548C48.0602 35.0847 47.5416 35.3841 47.2959 35.5069C46.8302 35.7398 46.362 35.8843 45.8665 36.0495C45.4437 36.1904 45.0562 36.3958 44.6249 36.519C44.0352 36.6875 43.5557 37.0901 42.9816 37.2911C42.5845 37.43 42.1752 37.6747 41.7556 37.7188C41.2861 37.7683 40.8866 38.2718 40.4097 38.2718C39.9466 38.2718 41.3963 37.8406 41.4792 37.385C41.5481 37.006 41.7556 36.5835 41.7556 36.2164C41.7556 35.5121 41.6617 34.8358 41.6617 34.1506C41.6617 33.3007 42.14 33.1177 43.0546 33.1177C43.6281 33.1177 44.2843 33.1631 44.7083 33.5872C45.5927 34.4715 44.012 35.4956 43.2581 35.7469" stroke="#F28695" stroke-width="3" stroke-linecap="round"/>
<path d="M67.7665 58.565C68.5346 58.565 69.1711 58.6733 69.8115 58.1894C70.5234 57.6515 70.9592 57.5399 70.9592 56.5931C70.9592 54.9985 70.9592 53.4039 70.9592 51.8093C70.9592 50.928 70.5231 49.6169 70.0201 48.8984C69.6322 48.3442 69.4593 47.7166 68.9872 47.2029C68.7507 46.9455 68.6695 46.6108 68.4238 46.3578C68.2085 46.1362 67.9906 45.9131 67.7665 45.7005C66.616 44.609 65.2283 43.5522 63.9217 42.6539C63.1092 42.0953 62.3456 41.4948 61.4751 41.0471C60.6529 40.6243 59.9141 39.9331 59.1797 39.3882C58.0929 38.5819 61.5934 40.6196 62.7427 41.3341C63.4013 41.7434 64.0434 42.2932 64.5217 42.9043C65.0857 43.625 65.808 44.3715 66.1702 45.2101C66.4743 45.9145 66.9419 46.5756 67.297 47.2603C67.6822 48.0032 67.8867 48.8143 68.189 49.587C69.0195 51.7093 68.9622 54.1458 67.9543 56.2175C67.7781 56.5798 67.6261 56.9211 67.3909 57.2504C67.2212 57.488 67.2447 57.8166 67.1092 58.0538C66.9385 58.3526 66.7891 58.565 66.431 58.565C66.3368 58.565 65.7349 58.4711 66.0763 58.4711" stroke="#EBC39C" stroke-width="3" stroke-linecap="round"/>
<path d="M69.6445 75.9369C69.6925 76.3689 70.1855 76.5108 70.3957 76.8029C70.6105 77.1011 70.9452 77.5539 70.9591 77.9297C70.9752 78.3631 71.053 78.7804 71.053 79.2235C71.053 79.8061 70.7949 79.9788 70.5105 80.4442C70.2733 80.8323 69.5569 81.1142 69.1541 81.2893C68.4696 81.5869 67.8368 81.9948 67.1405 82.27C67.0641 82.3002 66.5714 82.4825 66.5875 82.4892C66.9356 82.6325 67.6049 82.0114 67.8395 81.8318C68.5094 81.3191 69.1376 80.9088 69.3419 80.0686C69.5611 79.1675 69.2195 78.3487 69.0602 77.5124C68.9104 76.7256 69.9818 77.4982 70.3227 77.721C70.7316 77.9884 70.8531 78.6281 70.9383 79.0878C71.007 79.459 71.1604 80.0386 71.0322 80.4233C70.9706 80.6081 70.3192 81.3031 71.0322 80.7259C71.7477 80.1467 71.6164 78.9213 71.6164 78.0966" stroke="#EBC39C" stroke-width="3" stroke-linecap="round"/>
<path d="M43.9932 47.5442C43.9932 48.0642 44.4932 48.5842 44.9932 48.5842C45.5932 48.5842 45.9932 48.0642 45.9932 47.5442C45.9932 46.9202 45.5932 46.5042 44.9932 46.5042C44.4932 46.5042 43.9932 46.9202 43.9932 47.5442Z" fill="black"/>
<path d="M62.9932 47.5442C62.9932 48.0642 63.4932 48.5842 63.9932 48.5842C64.5932 48.5842 64.9932 48.0642 64.9932 47.5442C64.9932 46.9202 64.5932 46.5042 63.9932 46.5042C63.4932 46.5042 62.9932 46.9202 62.9932 47.5442Z" fill="black"/>
<path d="M34.4931 52.7442C34.1931 53.2642 34.3931 53.7842 34.8931 53.7842C35.4931 53.7842 35.9931 53.2642 35.9931 52.7442C35.9931 52.1202 35.7931 51.7042 35.5931 51.7042C35.2931 51.7042 34.7931 52.1202 34.4931 52.7442Z" fill="black"/>
<path d="M47.4931 52.7442C47.1931 53.2642 47.3931 53.7842 47.8931 53.7842C48.4931 53.7842 48.9931 53.2642 48.9931 52.7442C48.9931 52.1202 48.7931 51.7042 48.5931 51.7042C48.2931 51.7042 47.7931 52.1202 47.4931 52.7442Z" fill="black"/>
<path d="M38.1341 45.9042C37.8341 46.4242 38.0341 46.9442 38.5341 46.9442C39.1341 46.9442 39.6341 46.4242 39.6341 45.9042C39.6341 45.2802 39.4341 44.8642 39.2341 44.8642C38.9341 44.8642 38.4341 45.2802 38.1341 45.9042Z" fill="black"/>
<path d="M59.9932 52.7442C59.9932 53.2642 60.4932 53.7842 61.0932 53.7842C61.5932 53.7842 61.7932 53.2642 61.4932 52.7442C61.1932 52.1202 60.6932 51.7042 60.3932 51.7042C60.1932 51.7042 59.9932 52.1202 59.9932 52.7442Z" fill="black"/>
<path d="M54.9932 45.9042C54.9932 46.4242 55.4932 46.9442 56.0932 46.9442C56.5932 46.9442 56.7932 46.4242 56.4932 45.9042C56.1932 45.2802 55.6932 44.8642 55.3932 44.8642C55.1932 44.8642 54.9932 45.2802 54.9932 45.9042Z" fill="black"/>
<path d="M35.4931 6.67215C28.3931 8.85615 26.9931 10.5202 26.9931 16.5522V21.5442H17.8931C12.8931 21.5442 7.99314 22.0642 6.89314 22.5842C4.69314 23.9362 4.39314 27.4722 6.39314 30.4882C7.29314 31.7362 8.69314 40.2642 9.99314 51.1842C12.6931 75.0002 13.8931 82.1762 15.2931 83.1122C15.9931 83.5282 28.6931 83.9442 43.6931 83.9442C67.0931 83.9442 71.0931 83.7362 72.3931 82.2802C74.6931 79.9922 74.3931 76.0402 71.7931 74.1682C69.7931 72.6082 69.6931 72.5042 71.2931 70.6322C73.2931 68.3442 73.4931 65.9522 71.8931 62.9362C70.9931 61.1682 71.0931 60.4402 72.3931 59.5042C74.5931 57.7362 74.3931 52.2242 71.8931 46.8162C69.3931 41.4082 63.2931 37.3522 56.2931 36.3122C52.4931 35.6882 51.3931 35.1682 51.1931 33.4002C50.9931 32.2562 51.5931 30.5922 52.4931 29.8642C54.5931 28.0962 54.3931 23.9362 52.0931 22.5842C50.9931 22.0642 46.4931 21.5442 41.9931 21.5442H33.8931L34.1931 18.2162C34.4931 15.5122 35.0931 14.7842 38.4931 13.5362C43.8931 11.6642 44.5931 10.7282 43.1931 7.50415C41.8931 4.48815 42.0931 4.59215 35.4931 6.67215ZM51.4931 26.7442C51.4931 27.9922 49.5931 28.4082 41.7931 28.6162C29.6931 28.9282 28.6931 30.9042 40.4931 30.9042C48.1931 30.9042 48.9931 31.1122 48.9931 32.8802C48.9931 34.4402 47.6931 35.2722 43.4931 36.6242C39.8931 37.6642 36.5931 39.6402 33.8931 42.3442C31.0931 45.1522 27.0931 47.4402 21.6931 49.5202C17.2931 51.2882 13.2931 52.4322 12.8931 52.2242C12.4931 51.9122 11.8931 49.5202 11.5931 46.7122C11.2931 44.0082 10.7931 39.3282 10.3931 36.3122L9.79314 30.9042H18.7931C23.7931 30.9042 28.1931 30.3842 28.4931 29.8642C28.8931 29.2402 25.3931 28.8242 18.5931 28.8242C12.6931 28.8242 7.79314 28.4082 7.49314 27.7842C5.89314 24.9762 8.79314 24.6642 29.7931 24.8722C48.2931 25.1842 51.4931 25.3922 51.4931 26.7442ZM62.6931 40.8882C66.6931 42.8642 68.3931 44.5282 69.8931 47.9602C72.3931 53.2642 72.5931 56.4882 70.3931 57.3202C69.4931 57.6322 60.4931 57.9442 50.3931 57.9442C29.8931 57.9442 30.1931 58.0482 31.3931 51.0802C33.4931 39.8482 50.1931 34.3362 62.6931 40.8882ZM28.9931 54.3042C28.9931 57.2162 29.4931 59.1922 30.4931 59.7122C31.7931 60.5442 31.6931 61.0642 30.1931 64.2882C28.7931 67.4082 27.4931 68.4482 22.1931 70.4242C18.5931 71.6722 15.4931 72.4002 14.9931 71.8802C14.4931 71.3602 13.9931 67.5122 13.7931 63.3522L13.4931 55.6562L20.4931 52.7442C24.3931 51.0802 27.7931 49.7282 28.2931 49.7282C28.6931 49.6242 28.9931 51.7042 28.9931 54.3042ZM67.9931 61.4802C67.9931 62.7282 65.9931 62.9362 57.5931 62.9362C51.8931 62.9362 46.7931 63.1442 46.2931 63.3522C44.6931 64.2882 34.6931 62.6242 34.1931 61.2722C33.8931 60.3362 37.6931 60.0242 50.8931 60.0242C64.9931 60.0242 67.9931 60.2322 67.9931 61.4802ZM52.4931 65.6402C60.7931 65.5362 68.0931 65.3282 68.8931 65.1202C69.6931 64.9122 70.5931 65.5362 70.7931 66.4722C71.0931 68.2402 69.6931 68.3442 51.5931 68.3442C32.5931 68.3442 31.9931 68.2402 31.9931 66.2642C31.9931 64.4962 32.3931 64.2882 34.7931 64.9122C36.2931 65.3282 44.2931 65.6402 52.4931 65.6402ZM31.9931 71.9842C31.9931 72.9202 31.2931 73.8562 30.4931 74.1682C29.5931 74.5842 28.9931 76.1442 28.9931 77.8082C28.9931 79.4722 28.6931 80.8242 28.2931 80.9282C13.7931 82.5922 10.3931 77.8082 22.5931 72.9202C29.5931 70.1122 31.9931 69.9042 31.9931 71.9842ZM67.9931 73.0242C67.9931 74.2722 66.4931 74.5842 60.8931 74.5842C56.4931 74.5842 54.0931 75.0002 54.4931 75.6242C54.7931 76.1442 58.8931 76.6642 63.5931 76.6642C72.0931 76.6642 73.7931 77.4962 70.7931 80.6162C69.4931 81.9682 35.6931 82.4882 32.5931 81.2402C31.6931 80.9282 30.9931 79.6802 30.9931 78.6402C30.9931 76.8722 31.7931 76.6642 40.3931 76.6642C52.2931 76.6642 54.1931 74.7922 42.8931 74.3762C37.3931 74.1682 34.4931 73.6482 34.1931 72.7122C33.8931 71.7762 37.6931 71.4642 50.8931 71.4642C65.3931 71.4642 67.9931 71.6722 67.9931 73.0242Z" fill="black"/>
</svg>
