<svg width="315" height="77" viewBox="0 0 315 77" fill="none" xmlns="http://www.w3.org/2000/svg">
<path id="QSName" d="M54.2859 39.04C54.2859 34.2933 55.4726 30.7067 57.8459 28.28C60.2459 25.8533 63.3259 24.64 67.0859 24.64C70.8726 24.64 73.9259 25.84 76.2459 28.24C78.5659 30.6133 79.7259 34.2133 79.7259 39.04C79.7259 42.7467 79.0059 45.7333 77.5659 48C76.1259 50.2667 74.1526 51.8267 71.6459 52.68L75.8859 55.6C76.0459 55.7067 76.1259 55.8933 76.1259 56.16C76.1259 56.4533 75.8193 56.9867 75.2059 57.76C74.6193 58.5333 73.8993 59.12 73.0459 59.52C72.2193 59.9467 71.5926 60.16 71.1659 60.16C70.7393 60.16 70.3926 60.0133 70.1259 59.72L64.2859 53.24C61.2993 52.68 58.8859 51.1867 57.0459 48.76C55.2059 46.3067 54.2859 43.0667 54.2859 39.04ZM67.0059 32.32C65.7259 32.32 64.6459 32.9067 63.7659 34.08C62.9126 35.2533 62.4859 36.9067 62.4859 39.04C62.4859 41.1467 62.8993 42.7733 63.7259 43.92C64.5526 45.04 65.6326 45.6 66.9659 45.6C68.3259 45.6 69.4193 45.0267 70.2459 43.88C71.0993 42.7333 71.5259 41.0933 71.5259 38.96C71.5259 36.8267 71.0859 35.1867 70.2059 34.04C69.3526 32.8933 68.2859 32.32 67.0059 32.32ZM82.9281 33.24C82.9281 32.9467 84.0748 32.8 86.3681 32.8C88.6615 32.8 89.8081 32.9467 89.8081 33.24V44.92C89.8081 46.2533 90.2348 46.92 91.0881 46.92C91.7281 46.92 92.4481 46.64 93.2481 46.08V33.24C93.2481 32.9733 94.3815 32.84 96.6481 32.84C98.9148 32.84 100.048 32.9733 100.048 33.24V46.36H101.088C101.995 46.36 102.448 47.2267 102.448 48.96C102.448 49.84 102.261 50.7333 101.888 51.64C101.355 52.8133 100.635 53.4 99.7281 53.4C97.9415 53.4 96.6215 52.6667 95.7681 51.2L95.7281 51.24C94.1015 52.68 92.3548 53.4 90.4881 53.4C87.9015 53.4 85.9948 52.76 84.7681 51.48C83.5415 50.1733 82.9281 48.0267 82.9281 45.04V33.24ZM112.206 52.76C112.206 52.9733 110.979 53.08 108.526 53.08C106.099 53.08 104.886 52.9867 104.886 52.8V33.16C104.886 32.9733 106.099 32.88 108.526 32.88C110.979 32.88 112.206 32.96 112.206 33.12V52.76ZM112.206 30.76C112.206 30.9467 110.979 31.04 108.526 31.04C106.099 31.04 104.886 30.96 104.886 30.8V25.04C104.886 24.7733 106.099 24.64 108.526 24.64C110.979 24.64 112.206 24.72 112.206 24.88V30.76ZM122.383 43.08C122.383 45.6933 123.37 47 125.343 47C126.623 47 127.69 46.7467 128.543 46.24C128.943 46.24 129.263 46.9333 129.503 48.32C129.77 49.68 129.903 50.6133 129.903 51.12C129.903 51.6 129.837 51.92 129.703 52.08C128.29 52.96 126.357 53.4 123.903 53.4C121.45 53.4 119.357 52.4933 117.623 50.68C115.917 48.84 115.063 46.3467 115.063 43.2C115.063 40.0267 115.903 37.4667 117.583 35.52C119.29 33.5733 121.543 32.6 124.343 32.6C127.17 32.6 129.13 33.28 130.223 34.64C130.463 34.9333 130.583 35.3733 130.583 35.96C130.583 36.52 130.477 37.2133 130.263 38.04C129.783 39.7467 129.157 40.7333 128.383 41C128.277 41.0267 128.117 41.04 127.903 41.04C127.717 41.04 127.477 40.88 127.183 40.56C126.143 39.52 125.303 39 124.663 39C124.05 39 123.517 39.32 123.063 39.96C122.61 40.6 122.383 41.64 122.383 43.08ZM132.777 25.32C132.777 24.8933 133.99 24.68 136.417 24.68C138.683 24.76 139.817 24.9333 139.817 25.2V40.56L143.777 33.24C143.963 32.84 145.097 32.64 147.177 32.64C149.257 32.64 150.59 32.7733 151.177 33.04L145.977 41.52L151.977 52.76C152.03 52.8667 151.523 52.9467 150.457 53C149.417 53.08 148.55 53.12 147.857 53.12C145.297 53.12 143.923 53 143.737 52.76L139.777 43.88V52.72C139.777 53.0667 138.603 53.24 136.257 53.24C133.937 53.24 132.777 53.08 132.777 52.76V25.32ZM162.806 43.24C163.312 43.64 164.179 44.1867 165.406 44.88C166.659 45.5733 167.846 45.92 168.966 45.92C170.112 45.92 170.686 45.48 170.686 44.6C170.686 44.2 170.526 43.8533 170.206 43.56C169.886 43.24 169.299 42.88 168.446 42.48C167.592 42.08 166.952 41.7733 166.526 41.56C166.099 41.32 165.526 40.9467 164.806 40.44C164.112 39.9067 163.579 39.36 163.206 38.8C162.139 37.28 161.606 35.3467 161.606 33C161.606 30.6533 162.472 28.68 164.206 27.08C165.966 25.4533 168.259 24.64 171.086 24.64C173.006 24.64 174.779 24.8533 176.406 25.28C178.032 25.68 178.872 26.2133 178.926 26.88C178.926 26.96 178.926 27.04 178.926 27.12C178.926 28.0533 178.632 29.24 178.046 30.68C177.459 32.0933 177.046 32.88 176.806 33.04C175.099 32.16 173.566 31.72 172.206 31.72C170.872 31.72 170.206 32.2 170.206 33.16C170.206 33.7467 170.699 34.2667 171.686 34.72C171.899 34.8267 172.206 34.9733 172.606 35.16C173.006 35.3467 173.459 35.5733 173.966 35.84C174.499 36.08 175.059 36.4 175.646 36.8C176.259 37.1733 176.912 37.68 177.606 38.32C179.019 39.6533 179.726 41.4133 179.726 43.6C179.726 46.4533 178.939 48.7867 177.366 50.6C175.792 52.4133 173.366 53.3467 170.086 53.4C168.486 53.4 167.032 53.2667 165.726 53C164.446 52.7333 163.326 52.2133 162.366 51.44C161.406 50.6667 160.926 49.7333 160.926 48.64C160.926 47.5467 161.126 46.4667 161.526 45.4C161.926 44.3067 162.352 43.5867 162.806 43.24ZM191.176 52.76C191.176 52.9467 190.216 53.04 188.296 53.04C185.629 52.96 184.296 52.8133 184.296 52.6V39.64H183.256C182.562 39.64 182.109 39.0533 181.896 37.88C181.842 37.5333 181.816 37.1867 181.816 36.84C181.816 36.0133 181.976 35.1867 182.296 34.36C182.776 33.1867 183.522 32.6 184.536 32.6C185.549 32.6 186.456 32.84 187.256 33.32C188.056 33.8 188.589 34.28 188.856 34.76C190.536 33.32 192.536 32.6 194.856 32.6C197.176 32.6 198.856 33.2267 199.896 34.48C200.936 35.7333 201.456 37.7867 201.456 40.64V52.64C201.456 52.96 200.309 53.12 198.016 53.12C195.749 53.12 194.616 52.96 194.616 52.64V41.08C194.616 39.7467 194.149 39.08 193.216 39.08C192.949 39.08 192.576 39.2 192.096 39.44C191.616 39.6533 191.309 39.8133 191.176 39.92V52.76ZM207.367 38.48C206.62 37.1467 206.247 36.0667 206.247 35.24C206.247 34.3867 206.474 33.84 206.927 33.6C208.447 32.9333 210.527 32.6 213.167 32.6C215.834 32.6 217.714 33.2267 218.807 34.48C219.9 35.7067 220.447 37.5333 220.447 39.96V46.28H221.807C222.26 46.28 222.607 46.5467 222.847 47.08C223.114 47.6133 223.247 48.3467 223.247 49.28C223.247 50.2133 223.007 51.1333 222.527 52.04C222.074 52.9467 221.447 53.4 220.647 53.4C219.207 53.4 218.047 53.0133 217.167 52.24C216.767 51.92 216.46 51.5333 216.247 51.08C215.02 52.6267 213.114 53.4 210.527 53.4C208.58 53.4 206.94 52.7067 205.607 51.32C204.274 49.9333 203.607 48.2933 203.607 46.4C203.607 42.0533 206.207 39.88 211.407 39.88H213.607V39.48C213.607 38.7867 213.487 38.3467 213.247 38.16C213.034 37.9467 212.514 37.84 211.687 37.84C210.674 37.84 209.234 38.0533 207.367 38.48ZM210.567 45.84C210.567 46.4267 210.727 46.88 211.047 47.2C211.367 47.4933 211.767 47.64 212.247 47.64C212.754 47.64 213.207 47.44 213.607 47.04V43.96H212.487C211.207 43.96 210.567 44.5867 210.567 45.84ZM232.071 43.08C232.071 45.6933 233.058 47 235.031 47C236.311 47 237.378 46.7467 238.231 46.24C238.631 46.24 238.951 46.9333 239.191 48.32C239.458 49.68 239.591 50.6133 239.591 51.12C239.591 51.6 239.524 51.92 239.391 52.08C237.978 52.96 236.044 53.4 233.591 53.4C231.138 53.4 229.044 52.4933 227.311 50.68C225.604 48.84 224.751 46.3467 224.751 43.2C224.751 40.0267 225.591 37.4667 227.271 35.52C228.978 33.5733 231.231 32.6 234.031 32.6C236.858 32.6 238.818 33.28 239.911 34.64C240.151 34.9333 240.271 35.3733 240.271 35.96C240.271 36.52 240.164 37.2133 239.951 38.04C239.471 39.7467 238.844 40.7333 238.071 41C237.964 41.0267 237.804 41.04 237.591 41.04C237.404 41.04 237.164 40.88 236.871 40.56C235.831 39.52 234.991 39 234.351 39C233.738 39 233.204 39.32 232.751 39.96C232.298 40.6 232.071 41.64 232.071 43.08ZM242.464 25.32C242.464 24.8933 243.677 24.68 246.104 24.68C248.371 24.76 249.504 24.9333 249.504 25.2V40.56L253.464 33.24C253.651 32.84 254.784 32.64 256.864 32.64C258.944 32.64 260.277 32.7733 260.864 33.04L255.664 41.52L261.664 52.76C261.717 52.8667 261.211 52.9467 260.144 53C259.104 53.08 258.237 53.12 257.544 53.12C254.984 53.12 253.611 53 253.424 52.76L249.464 43.88V52.72C249.464 53.0667 248.291 53.24 245.944 53.24C243.624 53.24 242.464 53.08 242.464 52.76V25.32Z" fill="#fff"/>
</svg>
